<?xml version="1.0" encoding="UTF-8" standalone="no"?>
<svg width="33px" height="33px" viewBox="0 0 33 33" version="1.1" xmlns="http://www.w3.org/2000/svg" xmlns:xlink="http://www.w3.org/1999/xlink" xmlns:sketch="http://www.bohemiancoding.com/sketch/ns">
    <!-- Generator: Sketch 3.4.4 (17249) - http://www.bohemiancoding.com/sketch -->
    <title>Oval 1 Copy 2 + thumbs26</title>
    <desc>Created with Sketch.</desc>
    <defs></defs>
    <g id="Desktop-Design-SPECS" stroke="none" stroke-width="1" fill="none" fill-rule="evenodd" sketch:type="MSPage">
        <g id="Desktop-EOD-Homepage-SPECS" sketch:type="MSArtboardGroup" transform="translate(-682.000000, -923.000000)">
            <g id="Oval-1-Copy-2-+-thumbs26" sketch:type="MSLayerGroup" transform="translate(682.000000, 923.000000)">
                <circle id="Oval-1-Copy-2" fill-opacity="0.9" fill="#000000" sketch:type="MSShapeGroup" cx="16.5" cy="16.5" r="16.5"></circle>
                <g id="thumbs26" transform="translate(8.000000, 6.000000)" fill="#FFFFFF" sketch:type="MSShapeGroup">
                    <path d="M17.4178952,11.178701 C17.8001932,10.5876885 17.9910963,9.93710903 17.9910963,9.22650129 C17.9910963,8.40401687 17.6949875,7.68963376 17.102278,7.08221935 C16.5092817,6.47543417 15.8071453,6.1721045 14.9959506,6.1721045 L12.9364677,6.1721045 C13.3108148,5.3817107 13.4983163,4.61510169 13.4983163,3.87265503 C13.4983163,2.93841979 13.36143,2.19593118 13.088641,1.64497946 C12.8155652,1.09385995 12.4176523,0.688763201 11.8949434,0.429143879 C11.3721116,0.169650402 10.7833366,0.0400295097 10.1280858,0.0400295097 C9.73004995,0.0400295097 9.37914565,0.18773021 9.07492203,0.483257456 C8.73955063,0.818551888 8.49770453,1.24982451 8.34954767,1.77682363 C8.20130884,2.30365495 8.08229154,2.80875695 7.99265972,3.29183598 C7.90302789,3.77487306 7.76442028,4.11620808 7.57728771,4.31579908 C7.19494874,4.73897564 6.77765049,5.25011822 6.32518804,5.84889124 C5.53731321,6.89475147 5.00288293,7.51361782 4.72218407,7.70532251 L1.51609417,7.70532251 C1.10264841,7.70532251 0.74961294,7.85524648 0.457069736,8.15442324 C0.164649484,8.45389365 0.0183368984,8.81519616 0.0183368984,9.23841467 L0.0183368984,16.9033721 C0.0183368984,17.3265906 0.164485549,17.6877672 0.457069736,17.9872376 C0.749776876,18.2867081 1.10264841,18.4365481 1.51609417,18.4365481 L4.88583286,18.4365481 C5.0574735,18.4365481 5.59563333,18.5962042 6.50055823,18.9156001 C7.46011469,19.2589906 8.30454733,19.5204137 9.03385614,19.7001211 C9.76324692,19.8798285 10.5023919,19.9697242 11.251332,19.9697242 L12.3392501,19.9697242 L12.7607287,19.9697242 C13.8605731,19.9697242 14.7459077,19.6481469 15.4168554,19.005328 C16.0875572,18.362509 16.4192401,17.4862466 16.4115351,16.3764149 C16.8795714,15.7615756 17.1135486,15.0509679 17.1135486,14.2446336 C17.1135486,14.0690791 17.1020321,13.8974258 17.0785074,13.7295898 C17.3748211,13.1948302 17.5233468,12.6199259 17.5233468,12.0050866 C17.5232239,11.7176135 17.4881826,11.4420118 17.4178952,11.178701 L17.4178952,11.178701 Z M2.79155467,16.6759692 C2.64335682,16.8275711 2.46786369,16.9036657 2.26503428,16.9036657 C2.06216389,16.9036657 1.88662977,16.8276131 1.73839094,16.6759692 C1.59023407,16.5244092 1.51609417,16.3447018 1.51609417,16.1369309 C1.51609417,15.9293696 1.59007014,15.7497881 1.73839094,15.5980184 C1.8867937,15.4462906 2.06216389,15.3704477 2.26503428,15.3704477 C2.46786369,15.3704477 2.64335682,15.4462906 2.79155467,15.5980184 C2.9397935,15.7497461 3.0139334,15.9293277 3.0139334,16.1369309 C3.0139334,16.3447018 2.9397935,16.5244092 2.79155467,16.6759692 L2.79155467,16.6759692 Z M16.2423125,10.2091451 C16.0745653,10.5763624 15.8658342,10.763998 15.6162422,10.7718844 C15.7332103,10.9076717 15.830793,11.0974887 15.9088264,11.34079 C15.9867778,11.584385 16.0255076,11.8058732 16.0255076,12.00559 C16.0255076,12.5562481 15.8190716,13.0314408 15.4055848,13.4305389 C15.5461597,13.6859214 15.6162832,13.9615231 15.6162832,14.2567987 C15.6162832,14.552242 15.5481269,14.8456719 15.4115275,15.1370462 C15.275174,15.4281689 15.0897628,15.6378275 14.8558266,15.7655188 C14.8948023,16.0050028 14.9141467,16.2286303 14.9141467,16.4361915 C14.9141467,17.7695249 14.1652066,18.4362125 12.6672854,18.4362125 L11.2518648,18.4362125 C10.2297259,18.4362125 8.89598624,18.144964 7.24986719,17.5619637 C7.21080952,17.5460232 7.09785784,17.5039489 6.91052036,17.436202 C6.72318287,17.3684552 6.58478018,17.3184945 6.4950254,17.2866556 C6.40527062,17.2544811 6.26887614,17.2085894 6.08543213,17.1488547 C5.90202909,17.0888264 5.75399518,17.0448644 5.6407976,17.0170525 C5.52776396,16.9891987 5.39895151,16.9632326 5.25477008,16.939238 C5.11050669,16.9152855 4.98759592,16.9033721 4.88620171,16.9033721 L4.51177264,16.9033721 L4.51177264,9.2387083 L4.88620171,9.2387083 C5.01099774,9.2387083 5.14944142,9.20267454 5.30157372,9.13098453 C5.45366504,9.05908479 5.60977278,8.95131907 5.76965104,8.80756153 C5.92961127,8.66380399 6.07965339,8.52210193 6.22014626,8.38228755 C6.36059815,8.24259901 6.51658294,8.0669606 6.68826457,7.85545622 C6.85986423,7.64378404 6.99441443,7.47418622 7.09199714,7.34641106 C7.1894569,7.21867785 7.3122857,7.05491087 7.46052453,6.85531987 C7.60868139,6.65577081 7.69847716,6.53596587 7.72966592,6.49598894 C8.15864458,5.95313329 8.45897473,5.5898592 8.63057439,5.40612473 C8.95041289,5.06290203 9.18246383,4.62575662 9.3267682,4.09477239 C9.47123651,3.56370427 9.59017184,3.06267127 9.68345124,2.59167341 C9.77697654,2.12063361 9.9253793,1.78118627 10.1284546,1.5735831 C10.8771488,1.5735831 11.3765379,1.76113489 11.6260889,2.1364482 C11.875599,2.51167761 12.000436,3.09060898 12.000436,3.87307452 C12.000436,4.34411433 11.8130576,4.98483585 11.4385465,5.79519715 C11.0641994,6.60564234 10.8771488,7.24242071 10.8771488,7.7054903 L14.9958276,7.7054903 C15.3862814,7.7054903 15.7332513,7.85910574 16.0373519,8.16667221 C16.3416985,8.47402893 16.4940357,8.83126244 16.4940357,9.23858246 C16.4939128,9.51800148 16.4100187,9.84142448 16.2423125,10.2091451 L16.2423125,10.2091451 Z" id="Shape"></path>
                </g>
            </g>
        </g>
    </g>
</svg>