<?xml version="1.0" encoding="UTF-8" standalone="no"?>
<svg width="33px" height="33px" viewBox="0 0 33 33" version="1.1" xmlns="http://www.w3.org/2000/svg" xmlns:xlink="http://www.w3.org/1999/xlink" xmlns:sketch="http://www.bohemiancoding.com/sketch/ns">
    <!-- Generator: Sketch 3.4.4 (17249) - http://www.bohemiancoding.com/sketch -->
    <title>Oval 1 + Imported Layers Copy</title>
    <desc>Created with Sketch.</desc>
    <defs></defs>
    <g id="Desktop-Design-SPECS" stroke="none" stroke-width="1" fill="none" fill-rule="evenodd" sketch:type="MSPage">
        <g id="Desktop-EOD-Homepage-SPECS" sketch:type="MSArtboardGroup" transform="translate(-407.000000, -831.000000)">
            <g id="Oval-1-+-Imported-Layers-Copy" sketch:type="MSLayerGroup" transform="translate(407.000000, 831.000000)">
                <circle id="Oval-1" fill-opacity="0.9" fill="#000000" sketch:type="MSShapeGroup" cx="16.5" cy="16.5" r="16.5"></circle>
                <g id="Imported-Layers-Copy" transform="translate(6.000000, 9.000000)" fill="#FFFFFF" sketch:type="MSShapeGroup">
                    <path d="M18.74338,0.613288721 C18.6618588,0.202579493 18.2559916,-0.0662328008 17.8377333,0.0142396692 L0.623922396,3.32816447 C0.206750959,3.40842292 -0.0671604584,3.80800297 0.0143607968,4.2187122 L0.198055358,5.14393159 C0.205446619,5.18095748 0.21588134,5.21455902 0.22631606,5.24366608 C0.22740301,5.27341521 0.2297943,5.30316435 0.235663831,5.3331275 L2.17282624,15.0863481 C2.2543475,15.4970573 2.65999727,15.7650135 3.07803826,15.684541 L20.2929361,12.3706162 C20.7109771,12.2901437 20.9842363,11.8914198 20.9027151,11.4807106 L18.9655526,1.72748999 C18.9577266,1.68875192 18.9464223,1.65450831 18.9344659,1.623047 C18.9329441,1.5821687 18.928379,1.54107637 18.9205529,1.50148221 L18.74338,0.613288721 L18.74338,0.613288721 Z M1.9604362,4.61765019 L17.046651,1.71336451 L10.5914719,8.52591555 L1.9604362,4.61765019 L1.9604362,4.61765019 Z M17.7388208,3.46578095 L19.240551,11.0274108 L3.53803553,14.050051 L2.03630532,6.4884211 L10.4810378,10.2629224 C10.7753839,10.3951883 11.1395121,10.3232767 11.3603804,10.0953427 L17.7388208,3.46578095 L17.7388208,3.46578095 Z" id="Fill-11"></path>
                </g>
            </g>
        </g>
    </g>
</svg>