<?xml version="1.0" encoding="UTF-8" standalone="no"?>
<svg width="42px" height="42px" viewBox="0 0 42 42" version="1.1" xmlns="http://www.w3.org/2000/svg" xmlns:xlink="http://www.w3.org/1999/xlink" xmlns:sketch="http://www.bohemiancoding.com/sketch/ns">
    <!-- Generator: Sketch 3.4.4 (17249) - http://www.bohemiancoding.com/sketch -->
    <title>Imported Layers + free</title>
    <desc>Created with Sketch.</desc>
    <defs></defs>
    <g id="Desktop-Design-SPECS" stroke="none" stroke-width="1" fill="none" fill-rule="evenodd" sketch:type="MSPage">
        <g id="Desktop-EOD-Homepage-SPECS" sketch:type="MSArtboardGroup" transform="translate(-133.000000, -825.000000)">
            <g id="Imported-Layers-+-free" sketch:type="MSLayerGroup" transform="translate(133.000000, 825.000000)">
                <path d="M39.1813739,10.4987826 L34.3086435,7.6853913 L31.4959826,2.8133913 L25.8700522,2.8133913 L20.9973217,0 L16.1245913,2.8133913 L10.4986609,2.8133913 L7.68526957,7.68612174 L2.8133913,10.4987826 L2.8133913,16.124713 L0,20.9974435 L2.8133913,25.8701739 L2.8133913,31.4961043 L7.68612174,34.3094957 L10.499513,39.1822261 L16.1254435,39.1822261 L20.9974435,41.994887 L25.8701739,39.1814957 L31.4961043,39.1814957 L34.3094957,34.3087652 L39.1822261,31.4953739 L39.1822261,25.8694435 L41.9956174,20.996713 L39.1822261,16.1239826 L39.1822261,10.4987826 L39.1813739,10.4987826" id="Imported-Layers" fill-opacity="0.9" fill="#000000" sketch:type="MSShapeGroup"></path>
                <path d="M11.601,18.401 L10.7,25.8215 L10.343,27.7765 C10.3203332,27.9011673 10.272167,27.9904164 10.1985,28.04425 C10.124833,28.0980836 10.0341672,28.125 9.9265,28.125 L9.629,28.125 L10.819,18.4095 L9.748,18.3415 C9.62333271,18.3301666 9.561,18.2678339 9.561,18.1545 C9.561,18.1488333 9.56241665,18.1304168 9.56525,18.09925 C9.56808335,18.0680832 9.57799992,17.9703342 9.595,17.806 L10.887,17.806 L11.023,16.735 C11.079667,16.2533309 11.1901658,15.8297518 11.3545,15.46425 C11.5188342,15.0987482 11.7242488,14.7941679 11.97075,14.5505 C12.2172512,14.3068321 12.4963318,14.1240839 12.808,14.00225 C13.1196682,13.8804161 13.4539982,13.8195 13.811,13.8195 C13.9696675,13.8195 14.1283325,13.8350832 14.287,13.86625 C14.4456675,13.8974168 14.5873327,13.941333 14.712,13.998 L14.627,14.406 C14.6213333,14.4683336 14.5788337,14.4995 14.4995,14.4995 C14.4371664,14.4995 14.3493339,14.4881668 14.236,14.4655 C14.1226661,14.4428332 13.9923341,14.4315 13.845,14.4315 C13.5899987,14.4315 13.3477511,14.4739996 13.11825,14.559 C12.8887489,14.6440004 12.6847509,14.7785824 12.50625,14.96275 C12.3277491,15.1469176 12.1747506,15.3863319 12.04725,15.681 C11.9197494,15.9756681 11.8305003,16.3354979 11.7795,16.7605 L11.6435,17.806 L14.0405,17.806 L13.9555,18.401 L11.601,18.401 Z M14.627,26 L15.647,17.517 L16.0125,17.517 C16.2108343,17.517 16.31,17.618999 16.31,17.823 L16.0635,20.339 C16.4488353,19.4153287 16.8894142,18.7027525 17.38525,18.20125 C17.8810858,17.6997475 18.4094972,17.449 18.9705,17.449 C19.2028345,17.449 19.4408321,17.4971662 19.6845,17.5935 L19.54,18.35 C19.279332,18.2536662 19.0356678,18.2055 18.809,18.2055 C18.2026636,18.2055 17.6572524,18.5044137 17.17275,19.10225 C16.6882476,19.7000863 16.2731684,20.5628277 15.9275,21.6905 L15.4175,26 L14.627,26 Z M26.323,19.1575 C26.323,19.3898345 26.2918336,19.6108323 26.2295,19.8205 C26.1671664,20.0301677 26.0566675,20.2284991 25.898,20.4155 C25.7393325,20.6025009 25.5240014,20.7795825 25.252,20.94675 C24.9799986,21.1139175 24.6315021,21.266916 24.2065,21.40575 C23.7814979,21.544584 23.2743363,21.6692494 22.685,21.77975 C22.0956637,21.8902506 21.4043373,21.9879996 20.611,22.073 C20.5996666,22.1920006 20.5911667,22.3095828 20.5855,22.42575 C20.5798333,22.5419172 20.577,22.6566661 20.577,22.77 C20.577,23.6143376 20.7682481,24.2744976 21.15075,24.7505 C21.5332519,25.2265024 22.1098295,25.4645 22.8805,25.4645 C23.1808348,25.4645 23.4514155,25.431917 23.69225,25.36675 C23.9330845,25.301583 24.1484157,25.2180005 24.33825,25.116 C24.5280843,25.0139995 24.6952493,24.9063339 24.83975,24.793 C24.9842507,24.6796661 25.1131661,24.5720005 25.2265,24.47 C25.3398339,24.3679995 25.4375829,24.284417 25.51975,24.21925 C25.6019171,24.154083 25.6769997,24.1215 25.745,24.1215 C25.8130003,24.1215 25.8724997,24.149833 25.9235,24.2065 L26.1105,24.4275 C25.8328319,24.7221681 25.5622513,24.9757489 25.29875,25.18825 C25.0352487,25.4007511 24.768918,25.5749993 24.49975,25.711 C24.230582,25.8470007 23.9515014,25.947583 23.6625,26.01275 C23.3734986,26.077917 23.0646683,26.1105 22.736,26.1105 C22.2656643,26.1105 21.8477518,26.0325841 21.48225,25.87675 C21.1167482,25.7209159 20.8093346,25.4999181 20.56,25.21375 C20.3106654,24.9275819 20.120834,24.5790854 19.9905,24.16825 C19.860166,23.7574146 19.795,23.2970025 19.795,22.787 C19.795,22.3619979 19.8374996,21.9341688 19.9225,21.5035 C20.0075004,21.0728312 20.1335825,20.6591686 20.30075,20.2625 C20.4679175,19.8658313 20.6747488,19.4946684 20.92125,19.149 C21.1677512,18.8033316 21.4496651,18.5030013 21.767,18.248 C22.0843349,17.9929987 22.4356647,17.7918341 22.821,17.6445 C23.2063353,17.4971659 23.6228311,17.4235 24.0705,17.4235 C24.4841687,17.4235 24.8340819,17.4815828 25.12025,17.59775 C25.4064181,17.7139172 25.6387491,17.8584158 25.81725,18.03125 C25.9957509,18.2040842 26.1246663,18.3910823 26.204,18.59225 C26.2833337,18.7934177 26.323,18.9818325 26.323,19.1575 L26.323,19.1575 Z M24.028,18.0185 C23.5746644,18.0185 23.1652518,18.1148324 22.79975,18.3075 C22.4342482,18.5001676 22.1112514,18.7565817 21.83075,19.07675 C21.5502486,19.3969183 21.3150843,19.7680812 21.12525,20.19025 C20.9354157,20.6124188 20.7951671,21.0529977 20.7045,21.512 C21.4241703,21.4326663 22.0446641,21.3405839 22.566,21.23575 C23.0873359,21.1309161 23.5293315,21.0204172 23.892,20.90425 C24.2546685,20.7880828 24.5479155,20.6620007 24.77175,20.526 C24.9955845,20.3899993 25.1698327,20.2497507 25.2945,20.10525 C25.4191673,19.9607493 25.5027498,19.8120008 25.54525,19.659 C25.5877502,19.5059992 25.609,19.3473342 25.609,19.183 C25.609,19.0639994 25.5820836,18.935084 25.52825,18.79625 C25.4744164,18.657416 25.3851673,18.5313339 25.2605,18.418 C25.1358327,18.3046661 24.9729177,18.2097504 24.77175,18.13325 C24.5705823,18.0567496 24.3226681,18.0185 24.028,18.0185 L24.028,18.0185 Z M33.9305,19.1575 C33.9305,19.3898345 33.8993336,19.6108323 33.837,19.8205 C33.7746664,20.0301677 33.6641675,20.2284991 33.5055,20.4155 C33.3468325,20.6025009 33.1315014,20.7795825 32.8595,20.94675 C32.5874986,21.1139175 32.2390021,21.266916 31.814,21.40575 C31.3889979,21.544584 30.8818363,21.6692494 30.2925,21.77975 C29.7031637,21.8902506 29.0118373,21.9879996 28.2185,22.073 C28.2071666,22.1920006 28.1986667,22.3095828 28.193,22.42575 C28.1873333,22.5419172 28.1845,22.6566661 28.1845,22.77 C28.1845,23.6143376 28.3757481,24.2744976 28.75825,24.7505 C29.1407519,25.2265024 29.7173295,25.4645 30.488,25.4645 C30.7883348,25.4645 31.0589155,25.431917 31.29975,25.36675 C31.5405845,25.301583 31.7559157,25.2180005 31.94575,25.116 C32.1355843,25.0139995 32.3027493,24.9063339 32.44725,24.793 C32.5917507,24.6796661 32.7206661,24.5720005 32.834,24.47 C32.9473339,24.3679995 33.0450829,24.284417 33.12725,24.21925 C33.2094171,24.154083 33.2844997,24.1215 33.3525,24.1215 C33.4205003,24.1215 33.4799997,24.149833 33.531,24.2065 L33.718,24.4275 C33.4403319,24.7221681 33.1697513,24.9757489 32.90625,25.18825 C32.6427487,25.4007511 32.376418,25.5749993 32.10725,25.711 C31.838082,25.8470007 31.5590014,25.947583 31.27,26.01275 C30.9809986,26.077917 30.6721683,26.1105 30.3435,26.1105 C29.8731643,26.1105 29.4552518,26.0325841 29.08975,25.87675 C28.7242482,25.7209159 28.4168346,25.4999181 28.1675,25.21375 C27.9181654,24.9275819 27.728334,24.5790854 27.598,24.16825 C27.467666,23.7574146 27.4025,23.2970025 27.4025,22.787 C27.4025,22.3619979 27.4449996,21.9341688 27.53,21.5035 C27.6150004,21.0728312 27.7410825,20.6591686 27.90825,20.2625 C28.0754175,19.8658313 28.2822488,19.4946684 28.52875,19.149 C28.7752512,18.8033316 29.0571651,18.5030013 29.3745,18.248 C29.6918349,17.9929987 30.0431647,17.7918341 30.4285,17.6445 C30.8138353,17.4971659 31.2303311,17.4235 31.678,17.4235 C32.0916687,17.4235 32.4415819,17.4815828 32.72775,17.59775 C33.0139181,17.7139172 33.2462491,17.8584158 33.42475,18.03125 C33.6032509,18.2040842 33.7321663,18.3910823 33.8115,18.59225 C33.8908337,18.7934177 33.9305,18.9818325 33.9305,19.1575 L33.9305,19.1575 Z M31.6355,18.0185 C31.1821644,18.0185 30.7727518,18.1148324 30.40725,18.3075 C30.0417482,18.5001676 29.7187514,18.7565817 29.43825,19.07675 C29.1577486,19.3969183 28.9225843,19.7680812 28.73275,20.19025 C28.5429157,20.6124188 28.4026671,21.0529977 28.312,21.512 C29.0316703,21.4326663 29.6521641,21.3405839 30.1735,21.23575 C30.6948359,21.1309161 31.1368315,21.0204172 31.4995,20.90425 C31.8621685,20.7880828 32.1554155,20.6620007 32.37925,20.526 C32.6030845,20.3899993 32.7773327,20.2497507 32.902,20.10525 C33.0266673,19.9607493 33.1102498,19.8120008 33.15275,19.659 C33.1952502,19.5059992 33.2165,19.3473342 33.2165,19.183 C33.2165,19.0639994 33.1895836,18.935084 33.13575,18.79625 C33.0819164,18.657416 32.9926673,18.5313339 32.868,18.418 C32.7433327,18.3046661 32.5804177,18.2097504 32.37925,18.13325 C32.1780823,18.0567496 31.9301681,18.0185 31.6355,18.0185 L31.6355,18.0185 Z" id="free" fill="#FFFFFF" sketch:type="MSShapeGroup"></path>
            </g>
        </g>
    </g>
</svg>