<?xml version="1.0" encoding="UTF-8" standalone="no"?>
<svg width="37px" height="37px" viewBox="0 0 37 37" version="1.1" xmlns="http://www.w3.org/2000/svg" xmlns:xlink="http://www.w3.org/1999/xlink" xmlns:sketch="http://www.bohemiancoding.com/sketch/ns">
    <!-- Generator: Sketch 3.4.4 (17249) - http://www.bohemiancoding.com/sketch -->
    <title>keyhole</title>
    <desc>Created with Sketch.</desc>
    <defs></defs>
    <g id="Desktop-Design-SPECS" stroke="none" stroke-width="1" fill="none" fill-rule="evenodd" sketch:type="MSPage">
        <g id="Desktop-EOD-Homepage-SPECS" sketch:type="MSArtboardGroup" transform="translate(-133.000000, -917.000000)" fill-opacity="0.9" fill="#000000">
            <g id="keyhole" sketch:type="MSLayerGroup" transform="translate(133.000000, 917.000000)">
                <g id="Group" sketch:type="MSShapeGroup">
                    <path d="M18.4936918,11.3969705 C16.0304623,11.3969705 14.0260328,13.4012787 14.0260328,15.8646295 C14.0260328,17.2950131 14.7289115,18.6471508 15.9058754,19.4823803 L16.2106098,19.6988 L16.2106098,25.184141 C16.2106098,25.4071115 16.3916066,25.5887148 16.6144557,25.5887148 L20.3726852,25.5887148 C20.5956557,25.5887148 20.777259,25.4069902 20.777259,25.184141 L20.777259,19.6988 L21.0819934,19.4823803 C22.2582295,18.6477574 22.9611082,17.2948918 22.9611082,15.8646295 C22.9605016,13.4014 20.9561934,11.3969705 18.4936918,11.3969705 L18.4936918,11.3969705 Z" id="Shape"></path>
                    <path d="M18.4936918,0 C8.29600656,0 0,8.29600656 0,18.4936918 C0,28.691377 8.29600656,36.9873836 18.4936918,36.9873836 C28.691377,36.9873836 36.9873836,28.691377 36.9873836,18.4936918 C36.9873836,8.29600656 28.6912557,0 18.4936918,0 L18.4936918,0 Z M22.2243836,20.4314 L22.2243836,25.184141 C22.2243836,26.2054623 21.3941279,27.0364459 20.3720787,27.0364459 L16.6138492,27.0364459 C15.5925279,27.0364459 14.7622721,26.2061902 14.7622721,25.184141 L14.7622721,20.4314 C13.3884197,19.315941 12.5776951,17.6358984 12.5776951,15.8646295 C12.5776951,12.6029279 15.2313836,9.94936066 18.4929639,9.94936066 C21.7545443,9.94936066 24.4075049,12.6030492 24.4075049,15.8646295 C24.4082328,17.6358984 23.5982361,19.3166689 22.2243836,20.4314 L22.2243836,20.4314 Z" id="Shape"></path>
                </g>
            </g>
        </g>
    </g>
</svg>