<?xml version="1.0" encoding="UTF-8" standalone="no"?>
<svg width="33px" height="33px" viewBox="0 0 33 33" version="1.1" xmlns="http://www.w3.org/2000/svg" xmlns:xlink="http://www.w3.org/1999/xlink" xmlns:sketch="http://www.bohemiancoding.com/sketch/ns">
    <!-- Generator: Sketch 3.4.4 (17249) - http://www.bohemiancoding.com/sketch -->
    <title>Oval 1 Copy + envelope122</title>
    <desc>Created with Sketch.</desc>
    <defs></defs>
    <g id="Desktop-Design-SPECS" stroke="none" stroke-width="1" fill="none" fill-rule="evenodd" sketch:type="MSPage">
        <g id="Desktop-EOD-Homepage-SPECS" sketch:type="MSArtboardGroup" transform="translate(-407.000000, -923.000000)">
            <g id="Oval-1-Copy-+-envelope122" sketch:type="MSLayerGroup" transform="translate(407.000000, 923.000000)">
                <circle id="Oval-1-Copy" fill-opacity="0.9" fill="#000000" sketch:type="MSShapeGroup" cx="16.5" cy="16.5" r="16.5"></circle>
                <g id="envelope122" transform="translate(7.000000, 10.000000)" fill="#FFFFFF" sketch:type="MSShapeGroup">
                    <path d="M16.408195,6.36975862 C17.0374025,6.36975862 17.5809129,6.20795402 18.1327801,5.92344828 L18.1327801,12.6456207 C18.1327801,12.682069 18.1435021,12.7180345 18.1406639,12.7538391 L12.610166,7.48822989 L14.3828423,5.74442529 C14.9652199,6.13891954 15.6590747,6.36975862 16.408195,6.36975862 L16.408195,6.36975862 Z M13.522639,4.92389655 C13.0272988,4.28029885 12.7307095,3.46998851 12.7307095,2.59152874 C12.7307095,1.93851724 12.896112,1.34102299 13.1837137,0.777804598 L1.30082988,0.777804598 C0.98626556,0.777804598 0.699925311,0.897931034 0.478390041,1.09425287 L9.08617842,9.28014943 L13.522639,4.92389655 L13.522639,4.92389655 Z M0,2.31402299 L0,12.6456207 C0,12.7622069 0.0293278008,12.875092 0.0570788382,12.9835517 L5.54886722,7.58470115 L0,2.31402299 L0,2.31402299 Z M9.50260166,10.5459425 C9.38820747,10.6582644 9.24046473,10.7145862 9.09264315,10.7145862 C8.94789627,10.7145862 8.80314938,10.6606782 8.68954357,10.5526207 L6.43508714,8.4086092 L0.855394191,13.8873563 C0.994070539,13.9418276 1.14370539,13.9731264 1.30090871,13.9731264 L16.8846141,13.9731264 C17.1149793,13.9731264 17.3298921,13.9081149 17.5157137,13.7965977 L11.7632863,8.32613793 L9.50260166,10.5459425 L9.50260166,10.5459425 Z M18.9343278,2.60158621 C18.9343278,4.01389655 17.8085187,5.16286207 16.4245934,5.16286207 C15.0407469,5.16286207 13.9149378,4.01389655 13.9149378,2.60158621 C13.9149378,1.1891954 15.0407469,0.0402298851 16.4245934,0.0402298851 C17.8085187,0.0402298851 18.9343278,1.1891954 18.9343278,2.60158621 L18.9343278,2.60158621 Z M17.2214108,2.58814943 L17.6115809,2.18995402 C17.8424979,1.9542069 17.8424979,1.57218391 17.6115809,1.33651724 C17.3805851,1.10093103 17.0062614,1.10093103 16.7753444,1.33651724 L16.3851743,1.73471264 L15.9950041,1.33651724 C15.7640083,1.10093103 15.3896846,1.10093103 15.1587676,1.33651724 C14.9278506,1.57226437 14.9278506,1.95428736 15.1587676,2.18995402 L15.5489378,2.58814943 L15.1587676,2.98634483 C14.9278506,3.22209195 14.9278506,3.60411494 15.1587676,3.83978161 C15.2742656,3.95757471 15.4256349,4.01647126 15.5769253,4.01647126 C15.7282158,4.01647126 15.8795851,3.95757471 15.995083,3.83978161 L16.3852531,3.44158621 L16.7754232,3.83978161 C16.8909212,3.95757471 17.0422905,4.01647126 17.1935809,4.01647126 C17.3448714,4.01647126 17.4962407,3.95757471 17.6117386,3.83978161 C17.8426556,3.60403448 17.8426556,3.22201149 17.6117386,2.98634483 L17.2214108,2.58814943 L17.2214108,2.58814943 Z" id="Shape"></path>
                </g>
            </g>
        </g>
    </g>
</svg>